<svg xmlns="http://www.w3.org/2000/svg" viewBox="0 0 64 64" role="img" aria-label="RusHistory">
  <rect width="64" height="64" rx="14" fill="#2F5D9F"/>

  <!-- Шатровая крыша центральной башни -->
  <path d="M32 6 L22 26 L42 26 Z" fill="#C94B4B"/>
  <!-- Золотой навершный шар -->
  <circle cx="32" cy="6" r="2" fill="#F5C84B"/>

  <!-- Тело башни -->
  <rect x="25" y="26" width="14" height="23" fill="#FFFFFF"/>

  <!-- Циферблат -->
  <circle cx="32" cy="33" r="3.2" fill="#F5C84B"/>
  <line x1="32" y1="30.5" x2="32" y2="33" stroke="#2F5D9F" stroke-width="0.9" stroke-linecap="round"/>
  <line x1="32" y1="33" x2="33.8" y2="33" stroke="#2F5D9F" stroke-width="0.9" stroke-linecap="round"/>

  <!-- Арочные ворота -->
  <path d="M28.5 41 C 28.5 38 35.5 38 35.5 41 L 35.5 49 L 28.5 49 Z" fill="#2F5D9F"/>

  <!-- Левая стена с зубцами -->
  <path d="M8 49 L8 30 L11 30 L11 33 L14 33 L14 30 L17 30 L17 33 L20 33 L20 30 L23 30 L23 33 L25 33 L25 49 Z" fill="#FFFFFF"/>

  <!-- Правая стена с зубцами -->
  <path d="M39 49 L39 33 L41 33 L41 30 L44 30 L44 33 L47 33 L47 30 L50 30 L50 33 L53 33 L53 30 L56 30 L56 49 Z" fill="#FFFFFF"/>

  <!-- Основание -->
  <rect x="6" y="49" width="52" height="3" rx="1" fill="#EEF1F7"/>
</svg>
